<?xml version="1.0" encoding="UTF-8"?>
<svg width="120px" height="120px" viewBox="0 0 120 120" version="1.1" xmlns="http://www.w3.org/2000/svg" xmlns:xlink="http://www.w3.org/1999/xlink">
    <title>无权限</title>
    <defs>
        <rect id="path-1" x="0" y="0" width="120" height="120"></rect>
        <linearGradient x1="50%" y1="100%" x2="50%" y2="-0.0163281676%" id="linearGradient-3">
            <stop stop-color="#FFFFFF" stop-opacity="0" offset="0%"></stop>
            <stop stop-color="#F9F9FA" stop-opacity="0.19" offset="9%"></stop>
            <stop stop-color="#F2F3F5" stop-opacity="0.4" offset="22%"></stop>
            <stop stop-color="#ECEDF0" stop-opacity="0.59" offset="34%"></stop>
            <stop stop-color="#E7E9ED" stop-opacity="0.74" offset="47%"></stop>
            <stop stop-color="#E4E5EA" stop-opacity="0.85" offset="59%"></stop>
            <stop stop-color="#E1E3E8" stop-opacity="0.93" offset="72%"></stop>
            <stop stop-color="#DCE0E8" offset="86%"></stop>
            <stop stop-color="#DCE0E8" offset="100%"></stop>
        </linearGradient>
        <linearGradient x1="50%" y1="100%" x2="50%" y2="0.0103885311%" id="linearGradient-4">
            <stop stop-color="#FFFFFF" stop-opacity="0" offset="30%"></stop>
            <stop stop-color="#FBFBFC" stop-opacity="0.14" offset="41%"></stop>
            <stop stop-color="#F0F1F3" stop-opacity="0.48" offset="66%"></stop>
            <stop stop-color="#DFE1E6" offset="100%"></stop>
        </linearGradient>
        <linearGradient x1="40.0092805%" y1="69.2198695%" x2="47.6273811%" y2="115.721209%" id="linearGradient-5">
            <stop stop-color="#DCE0E8" offset="0%"></stop>
            <stop stop-color="#D1D3D8" offset="100%"></stop>
        </linearGradient>
        <linearGradient x1="-7.21383168%" y1="49.9812813%" x2="17.8598973%" y2="49.9812813%" id="linearGradient-6">
            <stop stop-color="#DFE1E6" offset="27%"></stop>
            <stop stop-color="#D1D3D8" offset="89%"></stop>
            <stop stop-color="#C4C6CC" offset="100%"></stop>
        </linearGradient>
        <linearGradient x1="29.9518352%" y1="35.4488773%" x2="91.2099494%" y2="99.6845426%" id="linearGradient-7">
            <stop stop-color="#EDF1FA" offset="0%"></stop>
            <stop stop-color="#DCE0E8" offset="89%"></stop>
            <stop stop-color="#DCE0E8" offset="100%"></stop>
        </linearGradient>
        <linearGradient x1="49.7165533%" y1="8.99105043e-13%" x2="49.7165533%" y2="99.9253076%" id="linearGradient-8">
            <stop stop-color="#4D9BEE" offset="0%"></stop>
            <stop stop-color="#1890FF" offset="100%"></stop>
        </linearGradient>
    </defs>
    <g id="设计实施（体验设计稿）" stroke="none" stroke-width="1" fill="none" fill-rule="evenodd">
        <g id="缺省页" transform="translate(-476.000000, -1327.000000)">
            <g id="无权限" transform="translate(476.000000, 1327.000000)">
                <mask id="mask-2" fill="white">
                    <use xlink:href="#path-1"></use>
                </mask>
                <use id="Mask" fill="none" xlink:href="#path-1"></use>
                <g id="分组" mask="url(#mask-2)" fill-rule="nonzero">
                    <g transform="translate(3.000000, 28.000000)">
                        <path d="M84.2481203,66.9924812 C84.2481203,66.9924812 90.3033689,51.7069077 96.1485793,61.161686 C96.1485793,61.161686 98.233593,64.4143807 100.113691,59.3104739 C100.113691,59.3104739 106.77344,38.0110757 113.684211,66.9924812 L84.2481203,66.9924812 Z" id="路径" fill="url(#linearGradient-3)"></path>
                        <ellipse id="椭圆形" fill="url(#linearGradient-4)" cx="55.8270677" cy="94.906015" rx="55.8270677" ry="24.8684211"></ellipse>
                        <path d="M55.3348212,0.37253707 C44.3970147,-1.74140658 35.5263158,5.35576636 35.5263158,16.2195104 L35.5263158,39.031852 L42.3196991,40.344829 L42.3196991,17.5324874 C42.3196991,10.3998286 48.1382243,5.74611087 55.3144054,7.13005959 C62.4905864,8.51400831 68.3193195,15.4337519 68.3193195,22.5664107 L68.3193195,22.5664107 L68.3193195,45.3787523 L75.112782,46.6917293 L75.112782,23.8793877 C75.1433267,13.0156437 66.2777317,2.49661954 55.3348212,0.37253707 Z" id="路径" fill="url(#linearGradient-5)"></path>
                        <path d="M69.1438686,34.4693002 L45.1575648,30.8332855 L33.4195863,23.3458647 L25.5500372,28.140891 C25.4039219,28.2048538 25.2666836,28.2875985 25.1417597,28.3870528 L25.090725,28.417823 L25.090725,28.417823 C24.6265738,28.7918836 24.3578178,29.3584585 24.3609023,29.9563342 L24.3609023,76.1988505 C24.3609023,76.7193093 24.5670234,77.2183769 24.9337348,77.5859155 C25.3004462,77.9534541 25.7976277,78.1592505 26.3155576,78.1578947 L69.1030409,78.1578947 C70.1797339,78.1578947 71.0526316,77.280797 71.0526316,76.1988505 L71.0526316,36.4488512 C71.0612241,35.3758706 70.2113803,34.4944794 69.1438686,34.4693002 L69.1438686,34.4693002 Z" id="路径" fill="url(#linearGradient-6)"></path>
                        <path d="M82.0862443,78.1578947 L34.6482141,78.1578947 C33.4534094,78.1578947 32.4840343,77.2001516 32.481203,76.0168793 L32.481203,25.4868801 C32.4840343,24.3036078 33.4534094,23.3458647 34.6482141,23.3458647 L82.0862443,30.4402033 C83.2790441,30.4429993 84.2452971,31.3999286 84.2481203,32.5812188 L84.2481203,76.0117937 C84.2481203,77.1950694 83.2810456,78.1550908 82.0862443,78.1578947 Z" id="路径" fill="url(#linearGradient-7)"></path>
                        <path d="M65.5704985,50.7930498 L65.5704985,38.9082343 C65.5413628,38.2012352 65.0146146,37.6028527 64.290426,37.4540803 L59.5494169,36.5735372 C59.2318081,36.4936597 58.8933617,36.5644553 58.6397737,36.7638147 C58.3861856,36.9631741 58.2483619,37.2668005 58.2693444,37.5798722 L58.2693444,49.4646877 C55.6354505,50.2496289 53.7969925,52.5289775 53.7969925,55.5580457 C53.7969925,59.8400008 57.4317661,63.9861007 61.9199214,64.816327 C66.4080767,65.6465533 70.037594,62.8539739 70.037594,58.5720188 C70.0428504,55.5177923 68.2201958,52.5641992 65.5704985,50.7930498 Z" id="路径" fill="#CBCFD6"></path>
                        <path d="M65.9774436,37.7651235 C65.7474925,37.5594425 65.445884,37.4176806 65.1141929,37.3593789 L60.1969423,36.570431 C59.868018,36.4984597 59.5172182,36.5618908 59.2549121,36.7407674 C58.9926059,36.919644 58.8510378,37.1919774 58.8747482,37.4720857 L58.8747482,39.5864662 L65.9774436,37.7651235 Z" id="路径" fill="#C4C7CF"></path>
                        <circle id="椭圆形" fill="#D5D9E0" cx="28.4210526" cy="75.112782" r="13.1954887"></circle>
                        <path d="M87.2754582,48.7218045 C86.4249719,50.5800971 85.910599,52.5836457 85.7577621,54.6334253 C85.7577621,54.6334253 85.2068177,53.714437 82.2649823,52.7470809 C82.2169159,52.4589981 82.0823464,52.1938761 81.8803607,51.9893186 C81.6926112,51.644692 81.3154631,51.459483 80.938499,51.5267915 C80.5615349,51.5940999 80.2663014,51.8993652 80.2012049,52.2891384 C80.1361084,52.6789116 80.3152309,53.0688751 80.648532,53.2630041 C80.8486322,53.4755181 81.1089421,53.6166834 81.3917873,53.6660692 C82.2026112,54.3700895 83.268117,55.8748657 86.1579765,56.7239894 C86.1579765,56.7239894 86.5841788,57.1592997 86.8700462,56.3585438 C86.8700462,56.3585438 88.5280771,54.945129 89.3233083,49.269973 L87.2754582,48.7218045 Z" id="路径" fill="#FCD9CB"></path>
                        <path d="M92.4843966,49.1316734 C92.5204574,51.1231345 92.8955865,53.0907185 93.5912634,54.9372842 C91.852023,54.870957 90.1115071,55.0224371 88.4049403,55.3886588 L88.3082707,56.2914079 C90.4088539,56.9168724 92.6159412,57.0109958 94.7561318,56.5663832 C94.7561318,56.5663832 95.2878145,56.7531589 95.2056454,55.9334212 C95.2056454,55.9334212 96.0225034,53.9774647 94.4177883,48.7218045 L92.4843966,49.1316734 Z" id="路径" fill="#FCD9CB"></path>
                        <polygon id="路径" fill="#FCD9CB" points="90.3383459 48.7218045 90.3383459 46.6917293 92.1863763 46.6917293 92.3684211 48.7218045"></polygon>
                        <path d="M86.3135598,78.1616062 C86.3135598,78.1616062 84.2752404,78.0408269 85.8774542,79.1772507 C85.8774542,79.1772507 88.247593,80.9120812 89.1956485,79.8360471 C89.3980426,79.3929709 89.3572234,78.8536075 89.0913624,78.4580646 C88.1749475,78.2632262 87.2452862,78.164009 86.3135598,78.1616062 Z" id="路径" fill="#333333"></path>
                        <path d="M91.4378235,78.1952909 C91.4378235,78.1952909 89.3715258,77.886188 90.9042725,79.0453239 C90.9042725,79.0453239 93.1742897,80.8033465 94.2171395,79.9581433 C94.4589485,79.58817 94.4589485,79.1110241 94.2171395,78.7410507 C93.3088116,78.4773258 92.378698,78.2946842 91.4378235,78.1952909 L91.4378235,78.1952909 Z" id="路径" fill="#333333"></path>
                        <path d="M88.5763786,59.887218 C88.5763786,59.887218 87.0882335,60.6974139 87.3171789,63.1680111 L87.3171789,78.9418239 L89.044676,78.9418239 C89.044676,78.9418239 89.3048412,70.5547966 90.7617665,65.2035031 C90.7617665,65.2035031 91.9949496,69.7796092 91.9377133,78.9418239 C92.6418057,79.2499685 93.4502286,79.2499685 94.154321,78.9418239 C94.154321,78.9418239 94.7735142,66.1787388 94.0398483,60.892461 L88.5763786,59.887218 Z" id="路径" fill="#666666"></path>
                        <ellipse id="椭圆形" fill="#FCD9CB" transform="translate(90.969946, 44.403255) rotate(-63.010000) translate(-90.969946, -44.403255) " cx="90.9699461" cy="44.4032545" rx="2.66349872" ry="2.28944372"></ellipse>
                        <path d="M93.2861988,42.1308724 C93.2861988,42.1308724 91.7564774,41.0913506 90.5566958,41.967998 C90.5566958,41.967998 89.7418442,42.4470402 89.6118679,42.0159022 C89.6118679,42.0159022 88.7470254,42.6099146 90.0117951,43.3428493 C90.2618419,43.4929135 90.5621721,43.5460183 90.8516421,43.4913524 C90.8516421,43.4913524 91.6315001,43.4003344 91.1965793,44.2147062 C91.1965793,44.2147062 90.9366267,44.880575 90.3367359,44.8518324 C90.3367359,44.8518324 89.7018515,45.3021322 90.8016512,46.5141091 C90.8016512,46.5141091 92.6113217,47.4721936 94.1760368,44.93806 C94.1760368,44.93806 95.0658747,43.3811727 93.2861988,42.1308724 Z" id="路径" fill="#666666"></path>
                        <path d="M94.9474451,51.1505808 L95.4135338,50.9523006 C95.2840648,48.0928915 92.9743364,47.7067669 92.9743364,47.7067669 C91.8611758,47.9619721 90.7071342,47.9779734 89.5874252,47.753728 C89.5874252,47.753728 86.9980436,47.4771793 86.2781955,51.5680127 L87.930221,52.126328 C87.9104459,54.1653097 87.7460327,56.2002588 87.4382385,58.215617 C87.4382385,58.215617 86.8426807,60.0940609 87.930221,60.4384423 C87.930221,60.4384423 91.845366,61.4820223 94.2742059,60.4384423 C94.2742059,60.4384423 95.0613779,60.0940609 94.8386911,58.3512824 C94.6298949,56.0943729 94.6437729,53.8221622 94.8801212,51.5680127 C94.8801212,51.5680127 94.8904787,51.4114757 94.9474451,51.1505808 Z" id="路径" fill="url(#linearGradient-8)"></path>
                        <path d="M31.3057049,74.8704814 L34.9784717,71.1977146 C35.3292213,70.8475039 35.5263158,70.3721927 35.5263158,69.8765387 C35.5263158,69.3808848 35.3292213,68.9055736 34.9784717,68.5553629 L34.9784717,68.5553629 C34.628261,68.2046133 34.1529498,68.0075188 33.6572958,68.0075188 C33.1616419,68.0075188 32.6863307,68.2046133 32.33612,68.5553629 L28.6633532,72.2281297 C28.6000831,72.2923068 28.5137243,72.3284384 28.4236032,72.3284384 C28.3334821,72.3284384 28.2471232,72.2923068 28.1838531,72.2281297 L24.5110863,68.5553629 C23.7788398,67.8271256 22.5958801,67.8271256 21.8636336,68.5553629 L21.8636336,68.5553629 C21.5128839,68.9055736 21.3157895,69.3808848 21.3157895,69.8765387 C21.3157895,70.3721927 21.5128839,70.8475039 21.8636336,71.1977146 L25.5364004,74.8704814 C25.6005775,74.9337515 25.6367091,75.0201103 25.6367091,75.1102314 C25.6367091,75.2003525 25.6005775,75.2867114 25.5364004,75.3499815 L21.8636336,79.0227483 C21.1353962,79.7549948 21.1353962,80.9379545 21.8636336,81.670201 L21.8636336,81.670201 C22.5958801,82.3984383 23.7788398,82.3984383 24.5110863,81.670201 L28.1838531,77.9974342 C28.2471232,77.9332571 28.3334821,77.8971255 28.4236032,77.8971255 C28.5137243,77.8971255 28.6000831,77.9332571 28.6633532,77.9974342 L32.33612,81.670201 C32.6863307,82.0209506 33.1616419,82.2180451 33.6572958,82.2180451 C34.1529498,82.2180451 34.628261,82.0209506 34.9784717,81.670201 L34.9784717,81.670201 C35.706709,80.9379545 35.706709,79.7549948 34.9784717,79.0227483 L31.3057049,75.3499815 C31.2415277,75.2867114 31.2053962,75.2003525 31.2053962,75.1102314 C31.2053962,75.0201103 31.2415277,74.9337515 31.3057049,74.8704814 L31.3057049,74.8704814 Z" id="路径" fill="#FFFFFF"></path>
                    </g>
                </g>
            </g>
        </g>
    </g>
</svg>