<?xml version="1.0" encoding="UTF-8"?>
<svg width="120px" height="120px" viewBox="0 0 120 120" version="1.1" xmlns="http://www.w3.org/2000/svg" xmlns:xlink="http://www.w3.org/1999/xlink">
    <title>无数据</title>
    <defs>
        <rect id="path-1" x="0" y="0" width="120" height="120"></rect>
        <path d="M50.886,2.0003 L50.886,3.1823 C50.887,5.3913 49.097,7.1823 46.889,7.1823 L46.889,7.1823 L25,7.1823 L24.8,7.1773 C22.684,7.0743 21,5.3253 21,3.1823 L21,3.1823 L21,1.9993 C21,0.8953 20.105,-0.0007 19,-0.0007 L19,-0.0007 L0,0.0003 L0,22.0003 C0,24.2093 1.791,26.0003 4,26.0003 L4,26.0003 L68.1,26.0003 C70.309,26.0003 72.1,24.2093 72.1,22.0003 L72.1,22.0003 L72.1,0.0003 L52.887,-0.0007 C51.782,-0.0007 50.886,0.8963 50.886,2.0003 L50.886,2.0003 Z" id="path-3"></path>
        <path d="M0,12 C0,14.351 0.846,16.544 2.305,18.395 L2.305,18.395 C2.517,18.663 2.59,19.014 2.482,19.338 L2.482,19.338 L1.143,23.326 L5.489,21.717 C5.765,21.615 6.069,21.645 6.326,21.791 L6.326,21.791 C8.775,23.182 11.768,24 15,24 L15,24 C23.284,24 30,18.628 30,12 L30,12 C30,5.372 23.284,0 15,0 L15,0 C6.716,0 0,5.372 0,12 L0,12 Z" id="path-5"></path>
        <linearGradient x1="49.7165533%" y1="8.99105043e-13%" x2="49.7165533%" y2="99.9253076%" id="linearGradient-7">
            <stop stop-color="#4D9BEE" offset="0%"></stop>
            <stop stop-color="#1890FF" offset="100%"></stop>
        </linearGradient>
    </defs>
    <g id="设计实施（体验设计稿）" stroke="none" stroke-width="1" fill="none" fill-rule="evenodd">
        <g id="缺省页" transform="translate(-476.000000, -1901.000000)">
            <g id="无数据" transform="translate(476.000000, 1901.000000)">
                <mask id="mask-2" fill="white">
                    <use xlink:href="#path-1"></use>
                </mask>
                <use id="Mask" fill="none" xlink:href="#path-1"></use>
                <g id="编组-2" mask="url(#mask-2)">
                    <g transform="translate(7.000000, 11.000000)">
                        <ellipse id="椭圆形" fill="#F6F6F8" cx="44.5" cy="89.6931273" rx="44.5" ry="9"></ellipse>
                        <polygon id="矩形" fill="#AEB8C3" points="22.7169014 48.8931273 66.3830986 48.8931273 80.6 65.9931273 8.5 65.9931273"></polygon>
                        <rect id="矩形" fill="#F5F5F7" x="19.55" y="20.1931273" width="50" height="54" rx="2"></rect>
                        <rect id="矩形" fill="#DEDEE7" x="26.5" y="26.1931273" width="36" height="20" rx="2"></rect>
                        <rect id="矩形备份" fill="#DEDEE7" x="26.5" y="52.1306273" width="36" height="3" rx="1.5"></rect>
                        <rect id="矩形备份-2" fill="#DEDEE7" x="26.5" y="60.40732" width="36" height="3" rx="1.5"></rect>
                        <g id="编组" stroke-width="1" fill="none" transform="translate(8.500000, 66.010836)">
                            <mask id="mask-4" fill="white">
                                <use xlink:href="#path-3"></use>
                            </mask>
                            <g id="Clip-2"></g>
                            <polygon id="Fill-1" fill="#DCE0E8" mask="url(#mask-4)" points="-5 31.0003 77.1 31.0003 77.1 -4.9997 -5 -4.9997"></polygon>
                        </g>
                        <g id="编组" stroke-width="1" fill="none" transform="translate(76.000000, 0.000000)">
                            <mask id="mask-6" fill="white">
                                <use xlink:href="#path-5"></use>
                            </mask>
                            <g id="Clip-2"></g>
                            <polygon id="Fill-1" fill="#DCE0E8" mask="url(#mask-6)" points="-5 29 35 29 35 -5 -5 -5"></polygon>
                            <rect id="矩形" fill="#FFFFFF" mask="url(#mask-6)" x="7" y="9" width="4" height="4"></rect>
                        </g>
                        <rect id="矩形" fill="#FFFFFF" x="89.1969377" y="9.13938071" width="4" height="4"></rect>
                        <circle id="椭圆形" fill="#FFFFFF" cx="96.8208032" cy="11.1393807" r="2"></circle>
                        <polygon id="三角形" fill="#FFFFFF" points="85.1791968 9.13938071 87.1791968 13.1393807 83.1791968 13.1393807"></polygon>
                    </g>
                </g>
                <g id="编组-3" mask="url(#mask-2)" fill-rule="nonzero">
                    <g transform="translate(86.971629, 62.415324)">
                        <path d="M10.1297407,37.8065937 L8.26124752,39.7244019 C8.26124752,39.7244019 7.29138451,40.8750868 9.35713794,40.4915252 C9.35713794,40.4915252 11.8174119,39.94358 11.4831653,38.8038539 L11.2256311,37.8065937 L10.1297407,37.8065937 Z" id="路径" fill="#333333"></path>
                        <path d="M12.1023434,38.8202923 L10.1845352,40.9682375 C10.1845352,40.9682375 9.11604205,42.2723471 11.5215215,41.8394704 C11.5215215,41.8394704 13.2037133,41.1709772 13.7133023,40.0970046 C13.8195972,39.6070507 13.7076058,39.0950897 13.406453,38.6942649 L12.1023434,38.8202923 Z" id="路径" fill="#333333"></path>
                        <path d="M7.58727492,20.34358 C7.13059916,23.7943851 7.02778191,27.2828275 7.28042561,30.7545389 C7.27884423,31.3311092 7.38284198,31.9030969 7.58727492,32.4422101 L9.83932972,38.0750868 L11.0174119,38.0750868 L10.0420694,32.34358 C10.0420694,32.34358 9.49412424,29.6038539 10.4037133,24.4038539 C10.4037133,24.4038539 11.2201516,23.6367306 11.2749462,24.8148128 C11.2074677,29.6365193 11.4288687,34.4579388 11.9379599,39.253169 L13.3735763,39.253169 L14.4694667,20.8696074 L7.58727492,20.34358 Z" id="路径" fill="#666666"></path>
                        <path d="M16.5571379,9.74084023 L17.7845352,11.1764567 C17.7845352,11.1764567 17.9927544,11.8942649 18.6557681,11.1764567 L21.2201516,8.87508681 C21.2201516,8.87508681 21.8338503,8.053169 23.0612475,8.87508681 L24.0146722,9.38467585 C24.0146722,9.38467585 24.8530283,9.89974434 23.3187818,9.74084023 C23.3187818,9.74084023 22.0091927,9.30796352 21.5489188,9.89974434 L18.5571379,13.8120731 C18.3980239,13.9915967 18.1696282,14.0943594 17.9297407,14.0943594 C17.6898532,14.0943594 17.4614574,13.9915967 17.3023434,13.8120731 L15.2585078,11.1490594 L16.5571379,9.74084023 Z" id="路径" fill="#FCD9CB"></path>
                        <path d="M6.72700095,10.4367306 L5.63111054,11.6915252 C5.52093557,11.8048726 5.36079125,11.8546036 5.20579076,11.8236035 C5.05079027,11.7926034 4.92209207,11.6851039 4.86398725,11.5381005 L3.07220643,9.34631969 C2.91473553,9.01960514 2.55717525,8.8397006 2.20097355,8.90796352 L0.200973552,9.03947037 C0.200973552,9.03947037 -0.538752475,9.31892243 0.820151634,9.58741558 C1.45569328,9.60830404 2.05278454,9.89689815 2.46398725,10.3819361 L4.79275437,13.7846759 C4.79275437,13.7846759 5.34069958,14.6285115 6.04754889,14.0148128 L8.23932972,11.3298813 L6.72700095,10.4367306 Z" id="路径" fill="#FCD9CB"></path>
                        <ellipse id="椭圆形" fill="#FCD9CB" cx="10.7598777" cy="3.44494982" rx="2.15342466" ry="2.61369863"></ellipse>
                        <rect id="矩形" fill="#FCD9CB" x="10.7598777" y="4.52988133" width="1.69863014" height="3.49589041"></rect>
                        <path d="M7.58727492,0.962758043 C7.58727492,0.962758043 8.35439821,1.51070325 9.42837081,0.655908728 C10.2448598,-0.0220153846 11.3708919,-0.188913203 12.3489188,0.223032016 C13.1989643,0.874412769 13.6874508,1.8920929 13.6639873,2.96275804 C13.6352851,3.86899225 13.0515496,4.66400521 12.1954941,4.96275804 C12.5712741,4.46960067 12.7242028,3.84199704 12.6174119,3.23125119 C12.4622114,3.0763793 12.2164547,3.05999552 12.0420694,3.19289503 C12.0420694,3.19289503 12.546179,1.54905941 10.4694667,1.69700462 C10.4804256,1.69152517 7.82837081,2.49700462 7.58727492,0.962758043 Z" id="路径" fill="#666666"></path>
                        <path d="M10.3598777,7.03947037 C10.6982499,7.36484559 11.1595873,7.53003331 11.6275851,7.49338918 C12.095583,7.45674505 12.5255874,7.22176547 12.8091927,6.84768955 C13.8679989,6.46492047 15.050944,6.86226286 15.6639873,7.80659366 L17.0448092,9.61481284 C17.0448092,9.61481284 16.6228914,11.2586485 15.4009736,11.4942649 L14.666727,10.8422101 L14.9187818,20.8970046 C14.9297628,21.392493 14.5572106,21.8128083 14.0639873,21.8613882 C12.6393297,22.0038539 9.74617903,22.1463197 7.61467218,21.2641279 C7.22202583,21.1025411 6.9847208,20.6995702 7.03385026,20.2778265 L8.02563109,11.6860457 L6.17905574,10.3819361 L7.82289136,7.80659366 C8.34008071,6.92965892 9.44343885,6.59603011 10.3598777,7.03947037 L10.3598777,7.03947037 Z" id="路径" fill="url(#linearGradient-7)"></path>
                    </g>
                </g>
            </g>
        </g>
    </g>
</svg>